Coordinates
version=1
nRows=7
nColumns=40
inDegrees=yes

Units are S.I. units (second, meters, Newtons, ...)
If the header above contains a line with 'inDegrees', this indicates whether rotational values are in degrees (yes) or radians (no).

endheader
time	pelvis_tilt	pelvis_list	pelvis_rotation	pelvis_tx	pelvis_ty	pelvis_tz	hip_flexion_r	hip_adduction_r	hip_rotation_r	knee_angle_r	knee_angle_r_beta	ankle_angle_r	subtalar_angle_r	mtp_angle_r	hip_flexion_l	hip_adduction_l	hip_rotation_l	knee_angle_l	knee_angle_l_beta	ankle_angle_l	subtalar_angle_l	mtp_angle_l	lumbar_extension	lumbar_bending	lumbar_rotation	arm_flex_r	arm_add_r	arm_rot_r	elbow_flex_r	pro_sup_r	wrist_flex_r	wrist_dev_r	arm_flex_l	arm_add_l	arm_rot_l	elbow_flex_l	pro_sup_l	wrist_flex_l	wrist_dev_l
      3.37500000	      3.23850295	     -6.16049739	      0.95716511	     -0.37814836	      0.80638712	     -1.05542306	     59.11133256	     -1.19715311	    -11.09278912	     30.84579668	      0.53836071	    -12.58279510	      0.00000000	      0.00000000	     48.43512154	     -2.78359759	     -2.20833575	     89.02777341	      1.55382777	     26.12822337	      0.00000000	      0.00000000	    -23.80203280	      4.37469051	      3.95628393	     89.75624826	    -24.62730672	     32.85105894	     47.09447906	     84.30166035	      0.00000000	      0.00000000	     89.83242078	    -25.83516081	     40.04006855	     38.15748658	     84.32264493	      0.00000000	      0.00000000
      3.38000000	      3.23366849	     -6.15665556	      0.97754689	     -0.37828838	      0.80562220	     -1.05546780	     59.16480945	     -1.19965938	    -11.05754847	     30.84954613	      0.53842615	    -12.56430421	      0.00000000	      0.00000000	     48.53243602	     -2.78416132	     -2.22265269	     89.17189234	      1.55634312	     26.15190372	      0.00000000	      0.00000000	    -23.83044352	      4.39620289	      3.91240308	     89.76430329	    -24.49832905	     32.56271185	     47.08700031	     84.25640358	      0.00000000	      0.00000000	     89.83671608	    -25.82568829	     39.86938656	     38.17241933	     84.35722034	      0.00000000	      0.00000000
      3.38500000	      3.21649184	     -6.02271613	      0.95206966	     -0.37850920	      0.80494682	     -1.05549827	     59.25063929	     -1.26512770	    -10.96630141	     30.84705281	      0.53838264	    -12.60127760	      0.00000000	      0.00000000	     48.59917280	     -2.70197951	     -2.37063601	     89.24216316	      1.55756958	     26.16023102	      0.00000000	      0.00000000	    -23.86434230	      4.25646770	      3.92091104	     89.77446388	    -24.48171811	     32.37500106	     47.16161223	     83.99405150	      0.00000000	      0.00000000	     89.84009256	    -25.70234917	     39.62418538	     38.13830728	     84.21306398	      0.00000000	      0.00000000
      3.39000000	      3.09505945	     -6.05254924	      0.98731698	     -0.37856589	      0.80394934	     -1.05563226	     59.45022944	     -1.27984400	    -10.94881132	     30.91258432	      0.53952638	    -12.59605069	      0.00000000	      0.00000000	     48.83488491	     -2.68371449	     -2.31418815	     89.40236381	      1.56036561	     26.23732596	      0.00000000	      0.00000000	    -23.75079620	      4.32928819	      3.83711901	     89.77826280	    -24.29463525	     32.06743925	     47.04274564	     84.08824803	      0.00000000	      0.00000000	     89.84335472	    -25.78019929	     39.57803332	     38.24170305	     84.33943493	      0.00000000	      0.00000000
      3.39500000	      3.06884102	     -6.06196766	      0.98796394	     -0.37853313	      0.80317978	     -1.05566004	     59.53087543	     -1.28054504	    -11.01235769	     30.95269100	      0.54022637	    -12.54108585	      0.00000000	      0.00000000	     48.93262419	     -2.70166756	     -2.32267625	     89.54470658	      1.56284996	     26.28572609	      0.00000000	      0.00000000	    -23.74376335	      4.32855769	      3.92345965	     89.78265944	    -24.42426134	     31.95181039	     47.17349630	     84.26582478	      0.00000000	      0.00000000	     89.84613615	    -25.55820480	     39.24426414	     38.13424679	     84.50872298	      0.00000000	      0.00000000
      3.40000000	      3.06849427	     -6.03471762	      1.00621130	     -0.37888920	      0.80252099	     -1.05570534	     59.57608259	     -1.29924440	    -10.99836168	     30.93146797	      0.53985596	    -12.61904287	      0.00000000	      0.00000000	     49.01557809	     -2.68487348	     -2.36880846	     89.63447500	      1.56441671	     26.31436538	      0.00000000	      0.00000000	    -23.80169367	      4.30968974	      3.93419144	     89.79006215	    -24.37627000	     31.61661565	     47.22217053	     84.31515341	      0.00000000	      0.00000000	     89.85056061	    -25.43269004	     38.93079035	     38.10719015	     84.58391953	      0.00000000	      0.00000000
      3.40500000	      3.03544413	     -5.97610378	      1.02683359	     -0.37894687	      0.80176437	     -1.05584386	     59.67966357	     -1.36122897	    -10.99716549	     30.99343106	      0.54093742	    -12.56848453	      0.00000000	      0.00000000	     49.11364450	     -2.61531996	     -2.41114203	     89.74149392	      1.56628454	     26.35259215	      0.00000000	      0.00000000	    -23.79921900	      4.27395901	      3.90978051	     89.79579758	    -24.31748806	     31.36639683	     47.20166532	     84.28691137	      0.00000000	      0.00000000	     89.85277078	    -25.37850910	     38.71769277	     38.16756279	     84.62617668	      0.00000000	      0.00000000
